# xmcd
#
# Track frame offsets:
#	150
#	4653
#	14064
#	24955
#	38329
#	52507
#	66824
#	80391
#	94602
#	104380
#	115925
#	129439
#	141217
#	152192
#	166729
#	178493
#	190043
#	201411
#	213168
#	226900
#	240532
#	252937
#	268200
#	282441
#
# Disc length: 3965 seconds
#
# Revision: 0
# Processed by: cddbd v1.5.2PL0 Copyright (c) Steve Scherf et al.
# Submitted via: EZCDAudioConverter 1.3.4.1
#
DISCID=400f7b18
DTITLE=ELMER GANTRY'S VELVET OPERA
DYEAR=1900
DGENRE=
TTITLE0=INTRO
TTITLE1=MOTHER WRITES
TTITLE2=MARY JANE
TTITLE3=I WAS COOL
TTITLE4=WALTER SLY MEETS BILL BAILEY
TTITLE5=AIR
TTITLE6=LOOKIN' FOR A HAPPY LIFE
TTITLE7=FLAMES
TTITLE8=WHAT'S THE POINT OF LEAVING
TTITLE9=LONG NIGHTS OF SUMMER
TTITLE10=DREAM STARTS
TTITLE11=REACTIONS OF A YOUNG MAN
TTITLE12=NOW SHE'S GONE
TTITLE13=FLAMES [SINGLE]
TTITLE14=SALISBURY PLAIN [SINGLE]
TTITLE15=MARY JANE [SINGLE]
TTITLE16=DREAMY
TTITLE17=VOLCANO
TTITLE18=A QUICK ''B''
TTITLE19=TALK OF THE DEVIL
TTITLE20=AND I REMEMBER
TTITLE21=TO BE WITH YOU
TTITLE22=SALISBURY PLAIN [EXTENDED DEMO]
TTITLE23=FLAMES [DEMO]
EXTD=
EXTT0=
EXTT1=
EXTT2=
EXTT3=
EXTT4=
EXTT5=
EXTT6=
EXTT7=
EXTT8=
EXTT9=
EXTT10=
EXTT11=
EXTT12=
EXTT13=
EXTT14=
EXTT15=
EXTT16=
EXTT17=
EXTT18=
EXTT19=
EXTT20=
EXTT21=
EXTT22=
EXTT23=
PLAYORDER=
